# xmcd
#
# Track frame offsets: 
#        150
#        23095
#        37171
#        52899
#        72964
#        104662
#        124128
#        148348
#        167532
#        185722
#        210115
#
# Disc length: 3140 seconds
#
# Revision: 0
# Processed by: cddbd v1.5.2PL0 Copyright (c) Steve Scherf et al.
# Submitted via: ExactAudioCopy v0.99pb4
#
DISCID=9f0c420b
DTITLE=Cadillac Pete And The Heat - Steamroller
DYEAR=2006
DGENRE=Blues
TTITLE0=Rolling Pin
TTITLE1=leave It At The Door
TTITLE2=Crazy Mixed-Up World
TTITLE3=Lincoln Continental
TTITLE4=The Way I Feel
TTITLE5=Touch Touch Touch
TTITLE6=Help Me
TTITLE7=Quit Your Trippin' Fool
TTITLE8=Strawman
TTITLE9=What A Way To Go
TTITLE10=Scratch My Back
EXTD=
EXTT0=
EXTT1=
EXTT2=
EXTT3=
EXTT4=
EXTT5=
EXTT6=
EXTT7=
EXTT8=
EXTT9=
EXTT10=
PLAYORDER=
